# xmcd
#
# Track frame offsets: 
#        150
#        15215
#        32690
#        50998
#        63906
#        82380
#        94709
#        112299
#        130533
#        142390
#        155648
#        171377
#        189215
#        200074
#        218050
#
# Disc length: 3070 seconds
#
# Revision: 4
# Processed by: cddbd v1.5.2PL0 Copyright (c) Steve Scherf et al.
# Submitted via: ExactAudioCopy v1.1
#
DISCID=e00bfc0f
DTITLE=Various Artist - The Winners 2002 - Disc 1
DYEAR=2002
DGENRE=Country
TTITLE0=Kasey Chambers - Not Pretty Enough
TTITLE1=Brendon Walmsley - Never Never
TTITLE2=Tamara Stewart and Rick Price - Here Comes the Rain
TTITLE3=Adam Harvey - The House that Jack Built
TTITLE4=Gina Jeffreys - Angel
TTITLE5=Andrew Clermont and Parris McCleod - Happy as Larry
TTITLE6=Ted Egan - Old Ned
TTITLE7=Brendon Walmsley and Jim Haynes - Buckalong
TTITLE8=Feral Swing Katz - Roly Poly
TTITLE9=Crosby, Hammond, Crosby - One More for the Road
TTITLE10=Daniel Thompson - Rollin' with the Flow
TTITLE11=Beccy Cole and Carole Sturzel - Mother Knows Best
TTITLE12=Lindsay Butler and Barry Thornton - The Morning Mail
TTITLE13=Rikki Chaplin - You'll Never Know
TTITLE14=Josh Arnold and Lee Kernaghan - Thank God I'm a Country Boy
EXTD=CMAA Golden Guitar Awards (Australia)
EXTT0=
EXTT1=
EXTT2=
EXTT3=
EXTT4=
EXTT5=
EXTT6=
EXTT7=
EXTT8=
EXTT9=
EXTT10=
EXTT11=
EXTT12=
EXTT13=
EXTT14=
PLAYORDER=
